<svg xmlns="http://www.w3.org/2000/svg" version="1.1" xmlns:xlink="http://www.w3.org/1999/xlink" xmlns:svgjs="http://svgjs.dev/svgjs" width="1000" height="1000" viewBox="0 0 1000 1000"><g transform="matrix(1,0,0,1,0,0.0011603108179656374)"><svg viewBox="0 0 280 280" data-background-color="#ffffff" preserveAspectRatio="xMidYMid meet" height="1000" width="1000" xmlns="http://www.w3.org/2000/svg" xmlns:xlink="http://www.w3.org/1999/xlink"><g id="tight-bounds" transform="matrix(1,0,0,1,0,-0.00021011297081940938)"><svg viewBox="0 0 280 280" height="280" width="280"><g><svg viewBox="0 0 280 280" height="280" width="280"><g><svg viewBox="0 0 280 280" height="280" width="280"><g id="textblocktransform"><svg viewBox="0 0 280 280" height="280" width="280" id="textblock"><g><svg viewBox="0 0 280 280" height="280" width="280"><g transform="matrix(1,0,0,1,57.50420886156945,57.50420886156945)"><svg viewBox="0 0 164.9915822768611 164.9915822768611" height="164.9915822768611" width="164.9915822768611"><g><circle r="82" cx="82.49579113843055" cy="82.49579113843055" fill="#ff4057" data-fill-palette-color="accent"></circle><svg xmlns="http://www.w3.org/2000/svg" xmlns:xlink="http://www.w3.org/1999/xlink" version="1.1" x="24.74873734152917" y="24.748737341529164" viewBox="17.212013412629265 10.999800941028981 65.5767756074178 78.00019905897102" style="enable-background:new 0 0 100 100;" xml:space="preserve" height="115.49410759380275" width="115.49410759380275" class="icon-kg-0" data-fill-palette-color="quaternary" id="kg-0"><path d="M82.756 60.443c0.034-0.082 0.038-0.167 0.028-0.25-0.001-0.01 0.005-0.019 0.004-0.029l-3.822-21.77 2.162-26.854c0.016-0.198-0.087-0.387-0.262-0.481-0.175-0.093-0.389-0.076-0.546 0.048L61.954 25.584H38.046L19.682 11.108c-0.156-0.124-0.371-0.142-0.546-0.048-0.175 0.094-0.278 0.283-0.262 0.481l2.162 26.854-3.823 21.77c-0.002 0.01 0.005 0.019 0.004 0.029-0.01 0.083-0.007 0.168 0.028 0.25 0.001 0.002 0.003 0.002 0.003 0.004 0.022 0.052 0.069 0.088 0.108 0.13 0.028 0.03 0.046 0.07 0.08 0.092 0.001 0.001 0.002 0.003 0.003 0.004l16.03 10.092 6.04 12.042 0 0c0.001 0.002 0.003 0.003 0.004 0.005 0.033 0.065 0.079 0.122 0.137 0.166l7.667 5.917C47.405 88.963 47.512 89 47.623 89h4.755c0.11 0 0.218-0.037 0.306-0.104l7.667-5.917c0.057-0.044 0.103-0.102 0.137-0.166 0.001-0.002 0.003-0.003 0.004-0.005l0 0 6.041-12.042 16.029-10.092c0.001-0.001 0.002-0.003 0.003-0.004 0.035-0.022 0.053-0.064 0.082-0.095 0.038-0.042 0.084-0.076 0.106-0.128C82.753 60.446 82.755 60.445 82.756 60.443zM66.284 69.74l-7.536-10.775-0.011-0.144 9.391-3.946 13.085 5.465L66.284 69.74zM54.412 86.298L50.5 84.318V83h1.877c0.093 0 0.185-0.026 0.264-0.075l3.371-2.092 3.136 1.811L54.412 86.298zM40.852 82.644l3.136-1.811 3.371 2.092C47.438 82.974 47.53 83 47.623 83H49.5v1.318l-3.912 1.98L40.852 82.644zM18.787 60.34l13.085-5.465 9.391 3.946-0.011 0.144L33.717 69.74 18.787 60.34zM68.1 53.15l-1.342-2.709 4.385-4.244L68.1 53.15zM34.068 51.03l9.143 5.136-1.292 1.847-9.362-3.934L34.068 51.03zM35.765 50.836h5.836l1.426 4.08L35.765 50.836zM42.229 59.314l1.211-1.732 0.057 22.38-2.971 1.715L42.229 59.314zM44.436 55.999c0-0.024-0.008-0.047-0.012-0.071-0.002-0.013 0.002-0.026-0.001-0.039-0.002-0.008-0.007-0.013-0.01-0.021-0.003-0.011-0.002-0.022-0.006-0.033l-1.98-5.664c-0.07-0.201-0.26-0.335-0.472-0.335h-7.9l-4.895-4.738 12.453 3.539 7.833 3.656L45.642 76.17l-1.149 2.119L44.436 55.999zM50 55.177l3.292 20.657h-6.583L50 55.177zM54.358 76.17l-3.805-23.877 7.833-3.656 12.453-3.539-4.895 4.738h-7.901c-0.212 0-0.402 0.134-0.472 0.335l-1.98 5.664c-0.004 0.011-0.003 0.022-0.006 0.033-0.002 0.007-0.008 0.013-0.01 0.021-0.003 0.013 0.001 0.026-0.001 0.039-0.004 0.024-0.012 0.047-0.012 0.071l-0.057 22.291L54.358 76.17zM64.236 50.836l-7.263 4.08 1.426-4.08H64.236zM56.56 57.582l1.211 1.732 1.702 22.363-2.97-1.715L56.56 57.582zM56.79 56.166l9.143-5.136 1.511 3.049-9.362 3.934L56.79 56.166zM72.36 43.627l-13.517 3.841 3.634-20.494 15.216 11.49L72.36 43.627zM57.764 47.824L50 51.448l-7.764-3.624-3.767-21.24h23.062L57.764 47.824zM41.158 47.468l-13.517-3.841-5.334-5.163 15.216-11.49L41.158 47.468zM33.243 50.441l-1.342 2.709-3.043-6.953L33.243 50.441zM41.103 60.923l-1.509 19.824-5.16-10.288L41.103 60.923zM47.765 82l-3.103-1.926 1.758-3.24h7.16l1.758 3.24L52.235 82H50 47.765zM58.897 60.923l6.669 9.537-5.161 10.288L58.897 60.923zM81.644 59.437L68.79 54.068l4.246-9.704 5.096-4.932L81.644 59.437zM78.036 37.469l-15.09-11.394 17.091-13.473L78.036 37.469zM19.963 12.602l17.091 13.473-15.09 11.394L19.963 12.602zM21.869 39.432l5.096 4.932 4.246 9.704-12.855 5.369L21.869 39.432zM52.207 88h-4.414l-1.328-1.025L50 85.186l3.534 1.79L52.207 88z" fill="#ffffff" data-fill-palette-color="quaternary"></path></svg></g></svg></g><g><path d="M88.026 34.606v0c-0.415 0.625-0.998 1.116-1.748 1.471-0.756 0.358-1.503 0.494-2.24 0.408v0c-0.4 0.626-0.84 1.052-1.322 1.28-0.487 0.231-0.908 0.377-1.262 0.438-0.351 0.067-0.67 0.08-0.956 0.04v0c-0.633-0.06-1.051-0.305-1.256-0.737v0c-0.107-0.225-0.137-0.451-0.092-0.679v0c0.335 0.078 0.694 0.027 1.075-0.154v0c0.987-0.468 1.47-1.217 1.448-2.247v0l-3.882-8.192c-0.237-0.5-0.513-0.824-0.828-0.973v0c-0.539-0.25-1.31-0.382-2.312-0.397v0c0.59-0.708 0.933-1.245 1.027-1.611v0c0.174-0.618 0.132-1.199-0.126-1.743v0l-3.344-7.057c-0.787-0.675-1.674-0.779-2.661-0.312v0c-0.456 0.216-0.765 0.477-0.926 0.783v0c-0.199-0.112-0.35-0.278-0.454-0.496-0.101-0.212-0.128-0.448-0.082-0.707 0.049-0.253 0.167-0.504 0.354-0.754v0c0.371-0.558 0.893-0.997 1.568-1.317 0.675-0.32 1.378-0.427 2.109-0.322v0c0.406-0.644 0.985-1.144 1.734-1.499 0.756-0.358 1.545-0.461 2.368-0.307v0c1.027-1.03 2.393-1.949 4.099-2.758v0c1.081-0.512 2.058-0.841 2.93-0.986v0l1.625-0.277c0.202-0.042 0.387-0.103 0.556-0.183v0c0.306-0.145 0.354-0.439 0.144-0.883v0c-0.053-0.112-0.181-0.285-0.383-0.519v0c0.286-0.204 0.669-0.42 1.15-0.648 0.475-0.225 0.957-0.258 1.445-0.099 0.482 0.162 0.87 0.552 1.163 1.17 0.293 0.619 0.398 1.154 0.314 1.607v0c0.58 0.352 1.033 0.872 1.359 1.56 0.329 0.694 0.387 1.397 0.174 2.11v0c0.313 0.288 0.555 0.613 0.726 0.976 0.172 0.362 0.274 0.708 0.308 1.036 0.03 0.322 0.012 0.614-0.056 0.876v0c-0.132 0.529-0.413 0.896-0.844 1.1v0c-0.394 0.187-0.813 0.271-1.258 0.252v0c0.008-0.371-0.087-0.766-0.286-1.184-0.198-0.419-0.388-0.761-0.568-1.029-0.171-0.263-0.368-0.534-0.59-0.81v0c-0.488-0.626-1.078-1.192-1.769-1.698v0c-1.389-1.025-2.867-1.166-4.436-0.423v0c-1.956 0.927-3.077 2.082-3.363 3.464v0l3.66 7.723c0.451 0.031 0.829-0.026 1.136-0.171 0.3-0.142 0.541-0.264 0.722-0.365 0.182-0.101 0.365-0.207 0.55-0.318v0c0.448-0.281 0.768-0.544 0.958-0.787v0c0.368-0.45 0.367-1.066-0.003-1.846-0.373-0.787-0.767-1.32-1.181-1.598v0c0.101-0.239 0.342-0.449 0.723-0.63v0c0.75-0.355 1.472-0.227 2.168 0.385v0c0.255 0.216 0.455 0.477 0.6 0.783 0.145 0.306 0.239 0.682 0.282 1.128v0c0.705 0.309 1.228 0.822 1.569 1.541 0.341 0.719 0.407 1.448 0.199 2.19v0c0.315 0.31 0.545 0.618 0.691 0.924 0.145 0.306 0.222 0.629 0.23 0.969 0.008 0.34-0.037 0.633-0.135 0.879v0c-0.196 0.475-0.512 0.817-0.949 1.024v0c-0.312 0.148-0.632 0.192-0.959 0.133v0c0.045-0.503-0.057-1.017-0.306-1.542v0c-0.489-1.031-1.076-1.537-1.763-1.517v0c-0.564 0.038-1.177 0.213-1.84 0.527-0.669 0.317-1.134 0.66-1.395 1.028v0l4.185 8.829c0.842 0.68 1.848 0.743 3.016 0.189v0c0.381-0.181 0.648-0.426 0.8-0.735v0c0.205 0.109 0.359 0.274 0.462 0.493 0.104 0.219 0.134 0.453 0.092 0.702-0.036 0.247-0.14 0.495-0.312 0.745v0c-0.352 0.549-0.875 0.988-1.568 1.317-0.7 0.332-1.454 0.475-2.264 0.43zM81.473 29.861l1.026 2.165c0.458-0.47 0.426-1.346-0.098-2.628v0c-0.536-1.276-1.327-3.017-2.372-5.223-1.045-2.206-1.744-3.673-2.097-4.401-0.353-0.728-0.637-1.313-0.854-1.753v0c-0.662-1.301-1.166-2.034-1.512-2.198-0.343-0.174-0.632-0.259-0.867-0.255v0c1.836 3.874 2.816 6.111 2.939 6.71v0c0.054 0.518-0.173 1.016-0.681 1.494v0c0.778-0.086 1.291 0.019 1.538 0.315v0c0.383 0.469 1.375 2.394 2.978 5.774z" fill="#ff4057" data-fill-palette-color="primary"></path><path d="M177.736 29.053v0c-0.718 0.145-1.44 0.083-2.166-0.188-0.726-0.271-1.282-0.688-1.669-1.253v0c-0.727 0.149-1.337 0.132-1.83-0.052-0.499-0.186-0.893-0.385-1.183-0.596-0.293-0.205-0.524-0.424-0.696-0.658v0c-0.398-0.495-0.514-0.967-0.347-1.413v0c0.087-0.233 0.228-0.413 0.422-0.54v0c0.178 0.295 0.464 0.516 0.86 0.664v0c1.024 0.382 1.897 0.206 2.621-0.528v0l3.16-8.475c0.336-0.901 0.139-1.749-0.59-2.544v0l-0.619-0.685c1.209-0.095 2.049-0.369 2.52-0.82v0c0.211-0.209 0.385-0.498 0.523-0.868v0l2.729-7.318c-0.064-1.035-0.608-1.743-1.632-2.125v0c-0.395-0.147-0.755-0.171-1.081-0.071v0c-0.064-0.223-0.054-0.448 0.031-0.675 0.082-0.22 0.229-0.405 0.439-0.556 0.202-0.146 0.452-0.241 0.749-0.285v0c0.639-0.131 1.296-0.07 1.969 0.181 0.674 0.251 1.237 0.671 1.689 1.261v0c0.662-0.174 1.36-0.124 2.091 0.149 0.732 0.273 1.314 0.7 1.747 1.282v0c0.675-0.169 1.35-0.128 2.024 0.124v0c0.978 0.365 1.556 0.953 1.733 1.764v0c0.059 0.258 0.045 0.504-0.042 0.737-0.087 0.233-0.226 0.399-0.418 0.497v0c-0.187-0.291-0.468-0.507-0.844-0.646v0c-0.894-0.333-1.651-0.125-2.27 0.625v0l-3.414 9.155 8.193 3.055 3.414-9.155c0.023-0.973-0.409-1.625-1.297-1.955v0c-0.382-0.143-0.736-0.164-1.061-0.064v0c-0.087-0.202-0.087-0.42 0-0.653 0.087-0.233 0.237-0.428 0.451-0.585 0.207-0.159 0.442-0.274 0.704-0.346v0c0.552-0.134 1.139-0.085 1.761 0.147v0c0.674 0.251 1.214 0.663 1.62 1.236v0c0.727-0.149 1.45-0.09 2.17 0.178 0.726 0.271 1.279 0.687 1.659 1.249v0c0.701-0.159 1.308-0.143 1.82 0.048 0.505 0.188 0.904 0.385 1.197 0.59 0.293 0.205 0.533 0.431 0.721 0.679v0c0.381 0.482 0.487 0.949 0.318 1.403v0c-0.085 0.227-0.221 0.405-0.409 0.533v0c-0.187-0.291-0.474-0.509-0.863-0.654v0c-1.03-0.384-1.908-0.206-2.635 0.534v0l-2.729 7.318c-0.336 0.901-0.148 1.764 0.562 2.59v0c0.2 0.237 0.41 0.463 0.633 0.678v0c-0.816 0.072-1.386 0.166-1.71 0.282v0c-0.637 0.264-1.077 0.72-1.318 1.368v0l-3.16 8.474c0.067 1.028 0.615 1.735 1.645 2.119v0c0.389 0.145 0.75 0.165 1.084 0.061v0c0.058 0.221 0.045 0.445-0.04 0.671-0.085 0.227-0.228 0.413-0.43 0.56-0.209 0.144-0.453 0.244-0.733 0.302v0c-0.659 0.123-1.331 0.057-2.018-0.199-0.687-0.256-1.243-0.674-1.669-1.253v0c-0.656 0.176-1.347 0.129-2.072-0.142-0.719-0.268-1.305-0.697-1.757-1.286v0c-0.682 0.166-1.36 0.124-2.033-0.128v0c-0.978-0.365-1.558-0.957-1.739-1.777v0c-0.052-0.256-0.035-0.5 0.052-0.734 0.085-0.227 0.227-0.391 0.427-0.493v0c0.178 0.295 0.458 0.514 0.84 0.656v0c0.888 0.331 1.642 0.118 2.264-0.639v0l3.407-9.135-8.193-3.055-3.406 9.135c-0.026 0.979 0.408 1.636 1.302 1.969v0c0.376 0.14 0.731 0.158 1.065 0.054v0c0.078 0.206 0.075 0.423-0.01 0.65-0.087 0.233-0.234 0.429-0.44 0.588-0.213 0.157-0.458 0.268-0.734 0.335v0c-0.528 0.15-1.11 0.106-1.745-0.13v0c-0.661-0.246-1.199-0.654-1.614-1.222zM195.007 15.745c-0.47 1.242-1.239 3.294-2.307 6.158-1.068 2.864-1.658 4.566-1.771 5.107v0c-0.213 1.027-0.125 1.71 0.266 2.047v0l0.837-2.245c1.148-3.077 1.818-4.805 2.01-5.183 0.195-0.385 0.346-0.65 0.452-0.795v0c0.253-0.363 0.72-0.536 1.4-0.518v0c-0.471-0.36-0.701-0.822-0.69-1.387v0c0.072-0.608 0.857-2.92 2.354-6.937v0c-0.531 0.038-0.964 0.349-1.299 0.932v0c-0.357 0.642-0.774 1.582-1.252 2.821zM176.881 21.163l-0.837 2.245c0.637-0.006 1.229-0.645 1.777-1.917v0c0.541-1.274 1.239-3.055 2.092-5.341 0.853-2.287 1.421-3.81 1.703-4.568 0.276-0.76 0.494-1.373 0.652-1.838v0c0.466-1.369 0.645-2.235 0.538-2.6-0.105-0.371-0.238-0.639-0.398-0.802v0c-1.498 4.017-2.419 6.279-2.763 6.785v0c-0.334 0.4-0.852 0.583-1.555 0.549v0c0.61 0.501 0.896 0.943 0.856 1.327v0c-0.069 0.601-0.757 2.655-2.065 6.16z" fill="#ff4057" data-fill-palette-color="primary"></path><path d="M78.892 270.815v0c-0.747 0.075-1.498-0.066-2.255-0.425-0.763-0.361-1.342-0.857-1.739-1.488v0c-0.747 0.09-1.364 0.02-1.851-0.211-0.488-0.231-0.867-0.464-1.138-0.699-0.28-0.232-0.499-0.473-0.656-0.723v0c-0.355-0.527-0.429-1.01-0.222-1.448v0c0.106-0.225 0.262-0.392 0.467-0.502v0c0.158 0.312 0.428 0.558 0.809 0.739v0c0.994 0.47 1.887 0.369 2.68-0.304v0l3.904-8.25c0.24-0.506 0.314-0.93 0.223-1.272v0c-0.146-0.581-0.535-1.27-1.168-2.067v0c0.931 0.02 1.57-0.053 1.916-0.218v0c0.595-0.254 1.022-0.656 1.283-1.206v0l3.362-7.106c0.024-1.052-0.462-1.813-1.455-2.284v0c-0.463-0.219-0.865-0.291-1.206-0.215v0c-0.039-0.225-0.007-0.447 0.097-0.666 0.104-0.219 0.27-0.392 0.499-0.521 0.232-0.119 0.503-0.19 0.812-0.212v0c0.679-0.061 1.356 0.068 2.031 0.387 0.681 0.322 1.216 0.801 1.604 1.436v0c0.756-0.094 1.512 0.038 2.268 0.396 0.763 0.361 1.344 0.911 1.743 1.651v0c1.463 0.141 3.054 0.619 4.773 1.433v0c1.088 0.515 1.966 1.068 2.634 1.659v0l1.253 1.086c0.161 0.13 0.325 0.234 0.494 0.314v0c0.313 0.148 0.575-0.003 0.788-0.453v0c0.053-0.113 0.106-0.321 0.158-0.625v0c0.339 0.092 0.749 0.251 1.231 0.479 0.481 0.228 0.815 0.581 1.002 1.059 0.184 0.485 0.129 1.036-0.164 1.656-0.296 0.625-0.645 1.049-1.049 1.27v0c0.092 0.678-0.026 1.365-0.354 2.059-0.328 0.694-0.837 1.187-1.527 1.48v0c-0.028 0.431-0.127 0.827-0.299 1.19-0.172 0.363-0.374 0.661-0.607 0.895-0.233 0.234-0.474 0.411-0.721 0.53v0c-0.499 0.23-0.968 0.242-1.405 0.035v0c-0.394-0.186-0.723-0.461-0.988-0.823v0c0.286-0.232 0.529-0.56 0.73-0.985 0.198-0.419 0.346-0.781 0.445-1.086 0.099-0.305 0.181-0.633 0.248-0.984v0c0.178-0.78 0.245-1.601 0.202-2.464v0c-0.09-1.733-0.926-2.974-2.507-3.722v0c-1.969-0.932-3.58-1.067-4.834-0.405v0l-3.682 7.781c0.262 0.369 0.546 0.625 0.852 0.77 0.3 0.142 0.55 0.253 0.749 0.332 0.193 0.076 0.391 0.151 0.594 0.224v0c0.508 0.171 0.913 0.252 1.216 0.242v0c0.594 0.006 1.077-0.385 1.45-1.172 0.376-0.794 0.538-1.444 0.487-1.95v0c0.255-0.07 0.573-0.016 0.955 0.165v0c0.75 0.355 1.11 1 1.081 1.934v0c-0.008 0.34-0.085 0.664-0.23 0.97-0.148 0.313-0.381 0.627-0.698 0.943v0c0.214 0.744 0.15 1.478-0.194 2.204-0.343 0.725-0.87 1.241-1.581 1.546v0c-0.043 0.446-0.138 0.826-0.286 1.139-0.145 0.306-0.346 0.57-0.605 0.792-0.258 0.222-0.518 0.375-0.778 0.458v0c-0.492 0.15-0.956 0.121-1.394-0.086v0c-0.319-0.151-0.557-0.375-0.715-0.671v0c0.424-0.281 0.76-0.685 1.008-1.21v0c0.494-1.044 0.512-1.827 0.056-2.349v0c-0.393-0.415-0.923-0.781-1.592-1.097-0.669-0.316-1.229-0.459-1.68-0.428v0l-4.21 8.898c0.005 1.089 0.595 1.911 1.771 2.467v0c0.381 0.18 0.743 0.233 1.084 0.157v0c0.045 0.228 0.016 0.451-0.087 0.67-0.104 0.219-0.267 0.394-0.49 0.526-0.22 0.125-0.478 0.202-0.775 0.23v0c-0.654 0.073-1.331-0.056-2.031-0.388-0.706-0.334-1.302-0.83-1.786-1.487zM78.414 262.683l-1.033 2.184c0.663 0.054 1.326-0.531 1.989-1.755v0c0.651-1.23 1.502-2.957 2.555-5.182 1.053-2.225 1.749-3.705 2.089-4.439 0.343-0.74 0.614-1.339 0.815-1.795v0c0.596-1.34 0.849-2.199 0.761-2.577-0.089-0.379-0.209-0.657-0.362-0.837v0c-1.848 3.906-2.969 6.096-3.36 6.568v0c-0.369 0.376-0.901 0.514-1.596 0.415v0c0.563 0.557 0.808 1.025 0.735 1.404v0c-0.117 0.603-0.981 2.607-2.593 6.014z" fill="#ff4057" data-fill-palette-color="primary"></path><path d="M185.219 277.056v0c-0.448 0.58-1.038 1.007-1.77 1.28-0.732 0.273-1.431 0.32-2.096 0.14v0c-0.456 0.598-0.933 0.99-1.432 1.176-0.499 0.186-0.93 0.295-1.295 0.328-0.355 0.037-0.677 0.024-0.966-0.039v0c-0.625-0.114-1.023-0.397-1.192-0.85v0c-0.087-0.233-0.098-0.461-0.034-0.685v0c0.328 0.107 0.689 0.086 1.085-0.061v0c1.037-0.387 1.587-1.097 1.651-2.132v0l-3.183-8.533c-0.338-0.907-1.048-1.425-2.128-1.553v0l-0.92-0.122c0.86-0.86 1.319-1.617 1.377-2.273v0c0.02-0.303-0.039-0.639-0.177-1.008v0l-2.747-7.366c-0.731-0.753-1.615-0.936-2.652-0.55v0c-0.395 0.147-0.682 0.369-0.859 0.663v0c-0.195-0.127-0.335-0.303-0.419-0.53-0.085-0.227-0.096-0.466-0.036-0.717 0.057-0.243 0.182-0.481 0.376-0.716v0c0.404-0.52 0.946-0.906 1.626-1.16 0.68-0.254 1.387-0.307 2.121-0.16v0c0.387-0.565 0.95-0.985 1.688-1.26 0.739-0.275 1.462-0.335 2.17-0.179v0c0.406-0.572 0.947-0.984 1.621-1.235v0c0.991-0.37 1.821-0.303 2.488 0.201v0c0.216 0.163 0.367 0.361 0.454 0.595 0.085 0.227 0.088 0.443 0.01 0.649v0c-0.334-0.104-0.692-0.085-1.075 0.058v0c-0.894 0.333-1.33 0.994-1.308 1.982v0l3.436 9.213 8.25-3.077-3.436-9.213c-0.624-0.763-1.387-0.977-2.287-0.642v0c-0.382 0.143-0.662 0.361-0.84 0.657v0c-0.201-0.102-0.343-0.267-0.427-0.494-0.087-0.233-0.102-0.482-0.046-0.746 0.052-0.256 0.157-0.498 0.315-0.727v0c0.327-0.469 0.805-0.82 1.433-1.055v0c0.674-0.251 1.355-0.295 2.044-0.131v0c0.452-0.589 1.041-1.019 1.766-1.29 0.732-0.273 1.429-0.323 2.092-0.149v0c0.432-0.582 0.905-0.968 1.416-1.159 0.512-0.191 0.945-0.305 1.301-0.341 0.358-0.03 0.688-0.017 0.989 0.04v0c0.612 0.118 1.003 0.404 1.172 0.858v0c0.087 0.233 0.098 0.461 0.034 0.685v0c-0.328-0.107-0.689-0.086-1.084 0.061v0c-1.037 0.387-1.585 1.104-1.644 2.152v0l2.748 7.366c0.338 0.907 1.047 1.443 2.127 1.609v0c0.31 0.039 0.619 0.068 0.929 0.085v0c-0.572 0.604-0.942 1.056-1.111 1.356v0c-0.309 0.617-0.341 1.253-0.097 1.907v0l3.182 8.532c0.726 0.74 1.608 0.917 2.645 0.53v0c0.395-0.147 0.682-0.369 0.859-0.663v0c0.195 0.127 0.335 0.303 0.419 0.53 0.085 0.227 0.096 0.466 0.035 0.717-0.057 0.243-0.176 0.479-0.355 0.709v0c-0.417 0.524-0.972 0.916-1.666 1.174-0.687 0.256-1.385 0.303-2.095 0.14v0c-0.385 0.571-0.943 0.994-1.675 1.266-0.726 0.271-1.453 0.328-2.183 0.172v0c-0.411 0.581-0.953 0.997-1.627 1.249v0c-0.991 0.37-1.824 0.304-2.498-0.197v0c-0.209-0.165-0.357-0.365-0.444-0.598-0.087-0.233-0.087-0.451 0-0.653v0c0.328 0.107 0.682 0.089 1.065-0.054v0c0.901-0.336 1.337-0.997 1.308-1.983v0l-3.432-9.203-8.251 3.077 3.433 9.203c0.631 0.761 1.393 0.975 2.287 0.642v0c0.382-0.143 0.665-0.363 0.849-0.66v0c0.192 0.098 0.331 0.264 0.418 0.497 0.087 0.233 0.106 0.481 0.056 0.743-0.059 0.258-0.17 0.503-0.335 0.734v0c-0.308 0.462-0.782 0.812-1.423 1.051v0c-0.661 0.246-1.337 0.292-2.03 0.137zM189.59 255.533c0.46 1.253 1.229 3.324 2.306 6.214 1.075 2.883 1.747 4.566 2.016 5.049v0c0.52 0.92 1.04 1.383 1.558 1.389v0l-0.844-2.265c-1.155-3.097-1.785-4.855-1.889-5.273-0.104-0.419-0.164-0.717-0.18-0.896v0c-0.049-0.447 0.192-0.891 0.722-1.332v0c-0.598 0.039-1.078-0.159-1.439-0.592v0c-0.344-0.506-1.271-2.784-2.781-6.834v0c-0.376 0.376-0.502 0.899-0.378 1.569v0c0.152 0.725 0.455 1.716 0.909 2.971zM179.369 271.611l0.844 2.264c0.475-0.428 0.505-1.307 0.091-2.635v0c-0.427-1.324-1.071-3.139-1.931-5.446-0.86-2.306-1.435-3.837-1.724-4.593-0.292-0.762-0.531-1.374-0.718-1.835v0c-0.54-1.348-0.971-2.129-1.294-2.341-0.329-0.209-0.608-0.323-0.836-0.341v0c1.51 4.049 2.298 6.379 2.364 6.989v0c0.012 0.527-0.26 1.005-0.816 1.434v0c0.792-0.015 1.298 0.136 1.519 0.451v0c0.35 0.504 1.184 2.521 2.501 6.053z" fill="#ff4057" data-fill-palette-color="primary"></path><path d="M5.959 142.988c0-1.851 1.501-3.352 3.352-3.352 1.851 0 3.352 1.501 3.352 3.352 0 1.851-1.501 3.352-3.352 3.352-1.851 0-3.352-1.501-3.352-3.352z" fill="#ff4057" data-fill-palette-color="primary"></path><path d="M267.337 142.988c0-1.851 1.501-3.352 3.352-3.352 1.851 0 3.352 1.501 3.352 3.352 0 1.851-1.501 3.352-3.352 3.352-1.851 0-3.352-1.501-3.352-3.352z" fill="#ff4057" data-fill-palette-color="primary"></path></g></svg></g></svg></g></svg></g><g></g></svg></g><defs></defs></svg><rect width="280" height="280" fill="none" stroke="none" visibility="hidden"></rect></g></svg></g></svg>